<?xml version="1.0" encoding="utf-8"?>
<!-- Generator: Adobe Illustrator 27.9.0, SVG Export Plug-In . SVG Version: 6.00 Build 0)  -->
<svg version="1.1" xmlns="http://www.w3.org/2000/svg" xmlns:xlink="http://www.w3.org/1999/xlink" x="0px" y="0px"
	 viewBox="0 0 562.5 562.5" style="enable-background:new 0 0 562.5 562.5;" xml:space="preserve">
<style type="text/css">
	.st0{fill:url(#SVGID_1_);}
	.st1{fill:url(#SVGID_00000154402915132203572690000012990414182119571624_);}
	.st2{fill:url(#SVGID_00000160158505446245793460000014282891198208627596_);}
	.st3{fill:url(#SVGID_00000054948946352249357480000007868360654942773936_);}
	.st4{fill:url(#SVGID_00000045621158531540196670000000754594140298135473_);}
	.st5{fill:url(#SVGID_00000168825891446319309060000009115583849559207317_);}
	.st6{fill:url(#SVGID_00000049928339731431819090000000615868992523190414_);}
	.st7{fill:url(#SVGID_00000013165690626594114800000005843649279778538894_);}
	.st8{fill:url(#SVGID_00000072268527422537307780000009756767819878831272_);}
	.st9{fill:#FFFFFF;}
	.st10{fill:url(#SVGID_00000139254630758663603020000005118583758524874637_);}
	.st11{fill:url(#SVGID_00000172434504136963439070000001385277079149549720_);}
	.st12{fill:url(#SVGID_00000156573635159574093670000004031630806474420399_);}
	.st13{fill:url(#SVGID_00000096052879863480108160000013050302002415458964_);}
	.st14{fill:url(#SVGID_00000116218302226237394420000008005364956462067363_);}
	.st15{fill:url(#SVGID_00000170263431596635153230000015698103704100673669_);}
	.st16{fill:url(#SVGID_00000011716422790623599760000012676941767274794128_);}
	.st17{fill:url(#SVGID_00000164486013965284174240000004532988786275274899_);}
	.st18{fill:url(#SVGID_00000102518427521801926500000009497569452717793157_);}
	.st19{fill:url(#SVGID_00000139995255796553707500000016947411314308085394_);}
	.st20{fill:url(#SVGID_00000060008241409016197290000017887416602540923278_);}
	.st21{fill:url(#SVGID_00000050654875949231050080000015360472973688444855_);}
	.st22{fill:url(#SVGID_00000094600587328976931040000005100469260920215743_);}
	.st23{fill:url(#SVGID_00000175296128931037354180000005964484558037074617_);}
	.st24{fill:url(#SVGID_00000174571601416524756070000006289005053138033302_);}
	.st25{fill:url(#SVGID_00000044150727493453436120000009112256742008505216_);}
	.st26{fill:url(#SVGID_00000104691908311705268520000006436571349268195759_);}
	.st27{fill:url(#SVGID_00000091700813806901148510000015981529416862332347_);}
	.st28{fill:url(#SVGID_00000140695816309877415480000000857144639726376887_);}
	.st29{fill:url(#SVGID_00000149379331296119975470000010331230609900718758_);}
	.st30{fill:url(#SVGID_00000052825930886951748770000002758806710733496456_);}
	.st31{fill:url(#SVGID_00000081641658922186803460000007727605198507956381_);}
	.st32{fill:url(#SVGID_00000001658682644717095240000010354884929988307076_);}
	.st33{fill:url(#SVGID_00000045577041193838861820000008378934685877174919_);}
	.st34{fill:url(#SVGID_00000137109230170582354700000014565321374720109698_);}
	.st35{fill:url(#SVGID_00000066511514860065230370000015746415158837057189_);}
	.st36{fill:url(#SVGID_00000060741847171113295170000006875418661166231975_);}
	.st37{fill-rule:evenodd;clip-rule:evenodd;fill:#FFFFFF;}
	.st38{fill:url(#SVGID_00000100371860348830264450000003541099876124605363_);}
	.st39{fill:url(#SVGID_00000152945635778381803580000017525036726564934820_);}
	.st40{fill:url(#SVGID_00000006706309673674900190000016030740871432338818_);}
	.st41{fill:url(#SVGID_00000093148420541841026970000013726428648405421750_);}
	.st42{fill:url(#SVGID_00000145752921257135029050000009110369747941017279_);}
	.st43{fill:url(#SVGID_00000012472686037967276370000003298288322443890847_);}
	.st44{fill:url(#SVGID_00000058584846808071254020000000692210441461405057_);}
	.st45{fill:url(#SVGID_00000044871869551102481360000009573941503976856240_);}
	.st46{fill:url(#SVGID_00000167385036942595991210000008245848521272881049_);}
	.st47{fill:url(#SVGID_00000176003584627850782860000000432073152586736780_);}
	.st48{fill:url(#SVGID_00000160163112163840130800000001355252409042351533_);}
	.st49{fill:url(#SVGID_00000163053858781589712680000010304894267298382720_);}
	.st50{fill:url(#SVGID_00000086692408735023685920000009206340031181682594_);}
	.st51{fill:url(#SVGID_00000016771407857747501660000005423101695098214586_);}
	.st52{fill:url(#SVGID_00000127732749536515024930000001094227987691356033_);}
	.st53{fill:url(#SVGID_00000101798435520325393410000012469803973389932932_);}
	.st54{fill:url(#SVGID_00000018924767803493778440000004172007128929580984_);}
	.st55{fill:url(#SVGID_00000024718417676907449220000017085128540723720322_);}
	.st56{fill:url(#SVGID_00000152251405145607723200000006728454913470413755_);}
	.st57{fill:url(#SVGID_00000051343357855771461190000001389632817736022400_);}
	.st58{fill:url(#SVGID_00000114041518032705288540000001571027312503859105_);}
	.st59{fill:url(#SVGID_00000048460323565969739210000003169719570513723037_);}
	.st60{fill:url(#SVGID_00000079471853137278669440000009154683910344277384_);}
	.st61{fill:url(#SVGID_00000047059010551000271270000016168816765078110094_);}
	.st62{fill:url(#SVGID_00000168827122296904607990000003538326964873608081_);}
	.st63{fill:url(#SVGID_00000103976254379989569650000014198316886566962054_);}
	.st64{fill:url(#SVGID_00000137855067454483898430000001159621669544972453_);}
	.st65{fill:url(#SVGID_00000026126711965180701300000014340253006780120741_);}
	.st66{fill:url(#SVGID_00000140007168692708395500000005227920255070866872_);}
	.st67{fill:url(#SVGID_00000079485761213451120020000012160400995194535868_);}
	.st68{fill:url(#SVGID_00000079462512699833639670000009163282608085695920_);}
	.st69{fill:url(#SVGID_00000096035520182411358720000011116215430915192218_);}
	.st70{fill:url(#SVGID_00000023239529125735259340000015233070096854563760_);}
	.st71{fill:url(#SVGID_00000168111729537411372970000017190360442085351299_);}
	.st72{fill:url(#SVGID_00000165212653433826080790000017854463315067264648_);}
	.st73{fill:url(#SVGID_00000002379597567824903790000001424476041775148691_);}
	.st74{fill:url(#SVGID_00000088814656636727360280000004651919090243723405_);}
	.st75{fill:url(#SVGID_00000039132050569257134720000001267175809751161779_);}
	.st76{fill:url(#SVGID_00000029045911448322634840000004406177150611161781_);}
	.st77{fill:url(#SVGID_00000002363924420968172060000017438478647176667574_);}
	.st78{fill:url(#SVGID_00000150816317856417457150000014111322724727416734_);}
	.st79{fill:url(#SVGID_00000077295368686181342910000011282978031757131672_);}
	.st80{fill:url(#SVGID_00000021808733402731167660000016367667416219280274_);}
	.st81{fill:url(#SVGID_00000103972314834379370300000002608095659361035943_);}
	.st82{fill:url(#SVGID_00000091705061612224919950000004058910513990167948_);}
	.st83{fill:url(#SVGID_00000065054779918158272410000000238547666012874636_);}
	.st84{fill:url(#SVGID_00000171698321694435241440000007689319602474814622_);}
	.st85{fill:url(#SVGID_00000120530513808069563930000002279581669948322439_);}
	.st86{fill:url(#SVGID_00000018232903751072673150000002961208081837185714_);}
	.st87{fill:url(#SVGID_00000124849820003268663980000017611688032840028330_);}
	.st88{fill:url(#SVGID_00000022525886161490090500000011909218718714018736_);}
	.st89{fill:url(#SVGID_00000181046960868610047590000017382288607662386871_);}
	.st90{fill:url(#SVGID_00000145017208050999137870000008871990530913198259_);}
	.st91{fill:url(#SVGID_00000043415469525040949340000012473102804202999939_);}
	.st92{fill:url(#SVGID_00000021118693714302710880000015667058052851809445_);}
	.st93{fill:url(#SVGID_00000131352241390393643170000006910011534335645588_);}
	.st94{fill:url(#SVGID_00000132808995126446961340000001099438873110978736_);}
	.st95{fill:url(#SVGID_00000093875710858878926500000011253706603674182531_);}
	.st96{fill:url(#SVGID_00000121986343336474896750000007145894187483764118_);}
	.st97{fill:url(#SVGID_00000083791901188822367050000016938989163311752579_);}
	.st98{fill:url(#SVGID_00000054251620688183248920000011384734964907444158_);}
	.st99{fill:url(#SVGID_00000102509304047386345370000013926403914035634100_);}
	.st100{fill:url(#SVGID_00000022533965123689610470000007770349917668300940_);}
	.st101{fill:url(#SVGID_00000139997108568055420710000007623731993793226420_);}
	.st102{fill:url(#SVGID_00000076569711057803292870000002218618883708597121_);}
	.st103{fill:url(#SVGID_00000003103786100816638070000009922190147412723371_);}
	.st104{fill:url(#SVGID_00000147195723042492840380000001465875412151177869_);}
	.st105{fill:url(#XMLID_00000173847207891064862930000009936924999926999943_);}
	.st106{fill:url(#XMLID_00000000201468637998353020000004571803708278786744_);}
	.st107{fill:url(#XMLID_00000072975369503664209700000005807810562262471580_);}
	.st108{fill:url(#XMLID_00000133513535730063215500000012562816593642692026_);}
	.st109{fill:url(#XMLID_00000166666206562723840180000015766296808430286743_);}
	.st110{fill:url(#XMLID_00000069396597824492460210000017131457556459116201_);}
	.st111{fill:url(#XMLID_00000060032572709201952990000012796796743405113783_);}
	.st112{fill:url(#XMLID_00000103247529577755792570000013437458231932265610_);}
	.st113{fill:url(#XMLID_00000129171875026241995050000012938538637677341868_);}
	.st114{fill:url(#XMLID_00000054962553264978573680000011083608730250968475_);}
	.st115{fill:url(#SVGID_00000150089972123346642710000006142098130888064439_);}
	.st116{fill:none;stroke:#FFFFFF;stroke-width:450;stroke-linecap:round;stroke-linejoin:round;stroke-miterlimit:10;}
	.st117{fill:none;stroke:url(#SVGID_00000068655165468557698000000007293989945604178619_);stroke-miterlimit:10;}
	.st118{fill:none;stroke:url(#SVGID_00000036973750321300766030000017431255826521934466_);stroke-miterlimit:10;}
	.st119{fill:url(#SVGID_00000175284647179763694960000006550760677610984638_);}
	.st120{fill:url(#SVGID_00000165915327901223486810000010357265539502454441_);}
	.st121{fill:url(#SVGID_00000183230631158559060780000011105737346351358901_);}
	.st122{fill:url(#SVGID_00000107565749363293802300000005320614006620774299_);}
	.st123{fill:url(#SVGID_00000080184006433743796180000018285346210345441452_);}
	.st124{fill:url(#SVGID_00000031186883320990112240000004001305323064345273_);}
</style>
<g id="Warstwa_2">
</g>
<g id="Warstwa_1">
	<linearGradient id="SVGID_1_" gradientUnits="userSpaceOnUse" x1="48.5422" y1="48.542" x2="531.2313" y2="531.2311">
		<stop  offset="0" style="stop-color:#8FD1FF"/>
		<stop  offset="1" style="stop-color:#45B6FF"/>
	</linearGradient>
	<path class="st0" d="M42.5,562.5H520c23.5,0,42.5-19,42.5-42.5V42.5C562.5,19,543.5,0,520,0H42.5C19,0,0,19,0,42.5V520
		C0,543.5,19,562.5,42.5,562.5z"/>
	<g>
		<path class="st9" d="M247.9,367c0-0.1-0.1-0.2-0.2-0.1c-1.6,1.4-3.7,2.2-5.9,2.2h-30.1c-5.1,0-9.3-4.1-9.3-9.3v-10.2
			c0-5.1,4.1-9.3,9.3-9.3h30c5.1,0,9.3,4.1,9.3,9.3v3.1c0,0,0.1,0.1,0.1,0c2.5-8.8,6.2-17.6,11-26.1c3-5.3,6.4-10.8,10.2-16.4
			c0-0.1,0-0.2,0-0.2c-2-1.7-3.2-4.2-3.2-7v-10.4c0-5.1,4.1-9.3,9.3-9.3h14c0,0,0.1,0,0.1-0.1c5.7-7,12-14.3,19.2-22.3
			c0.1-0.1,0.1-0.2,0-0.2c-1.6-1.6-3-3.5-4.2-5.4c0,0-0.1-0.1-0.1-0.1l-29,0c-5.1,0-9.3-4.1-9.3-9.3V236c0-5.1,4.1-9.3,9.3-9.3h28.4
			c0.1,0,0.1,0,0.1-0.1c2.4-4.4,5.8-8,10-10.7c0.1-0.1,0.1-0.2,0-0.2l-5.1-5.1c-2-2-8.8-18.4-10.8-20.4c0,0,0,0,0,0H137.7
			c-5.1,0-9.3-4.1-9.3-9.3v-31.5c0-5.1,4.1-9.3,9.3-9.3h177.9c5.1,0,9.3,4.1,9.3,9.3v8.6c0,0.1,0.1,0.2,0.2,0.1
			c5.2-0.9,10.5-0.5,15.5,1.3c0.1,0,0.2,0,0.2-0.1c3.9-8.4,11.8-14.7,20.9-16.6c0.1,0,0.1-0.1,0.1-0.1v-16.7
			c0-19-15.4-34.4-34.4-34.4H125.9c-19,0-34.4,15.4-34.4,34.4v257.3c0,19,15.4,34.4,34.4,34.4h127.9c0.1,0,0.2-0.1,0.1-0.2
			C247.5,401.3,245.5,384.1,247.9,367z M202.4,236c0-5.1,4.1-9.3,9.3-9.3h30c5.1,0,9.3,4.1,9.3,9.3v10.2c0,5.1-4.1,9.3-9.3,9.3h-30
			c-5.1,0-9.3-4.1-9.3-9.3V236z M202.4,292.8c0-5.1,4.1-9.3,9.3-9.3h30c5.1,0,9.3,4.1,9.3,9.3V303c0,5.1-4.1,9.3-9.3,9.3h-30
			c-5.1,0-9.3-4.1-9.3-9.3V292.8z M184.4,359.8c0,5.1-4.1,9.3-9.3,9.3h-30c-5.1,0-9.3-4.1-9.3-9.3v-10.2c0-5.1,4.1-9.3,9.3-9.3h30
			c5.1,0,9.3,4.1,9.3,9.3V359.8z M184.4,303c0,5.1-4.1,9.3-9.3,9.3h-30c-5.1,0-9.3-4.1-9.3-9.3v-10.2c0-5.1,4.1-9.3,9.3-9.3h30
			c5.1,0,9.3,4.1,9.3,9.3V303z M184.4,246.2c0,5.1-4.1,9.3-9.3,9.3h-30c-5.1,0-9.3-4.1-9.3-9.3V236c0-5.1,4.1-9.3,9.3-9.3h30
			c5.1,0,9.3,4.1,9.3,9.3V246.2z"/>
		<path class="st9" d="M348,174.9c-3.1,1.6-6.5,1.5-9.4-0.4c-6-3.9-14-3-19,2c-2.9,2.9-4.4,6.7-4.4,10.8c0,4.1,1.6,7.9,4.4,10.8
			l13.2,13.2c0,0,0,0,0,0h69.9c0,0,0,0,0,0l13.2-13.2c2.9-2.9,4.4-6.7,4.4-10.8s-1.6-7.9-4.4-10.8c-5-5-12.8-5.9-18.8-2.2
			c-2.5,1.5-5.5,2.1-8.3,1.1c-3.2-1.1-5.4-3.6-6.1-6.9c-1.5-7-7.8-12-14.9-12c-7,0-13.2,4.9-14.8,11.8
			C352.2,171.1,350.5,173.6,348,174.9z"/>
		<path class="st9" d="M460.8,333.8c-10.5-18.4-26.7-39.7-49.7-65.2c0,0,0,0,0,0c-2.6,0.8-5.4,1.2-8.1,1.2h-70.6
			c-2.8,0-5.5-0.4-8.1-1.2c0,0,0,0,0,0c-22.9,25.5-39.2,46.8-49.7,65.2c-17.1,30-17.5,63-1.1,90.6c18.5,31.2,54.6,50.3,94.2,49.6
			c39.7,0.7,75.8-18.3,94.3-49.6C478.3,396.8,477.9,363.8,460.8,333.8z M392.8,408.2c-4.5,3.5-10.6,5.9-17.2,7.1c0,0,0,0,0,0l0,4.2
			c0,4.4-3.3,8.2-7.7,8.5c-4.8,0.3-8.7-3.5-8.7-8.2v-4.7c0,0,0,0,0,0c-5.1-1-9.8-2.9-13.8-5.6c-6.8-4.5-11.4-11-13.4-18.9
			c-0.5-2.1-0.2-4.3,0.9-6.2s2.9-3.2,5-3.7c4.4-1.1,8.8,1.6,9.9,6c0.9,3.8,3.2,6.9,6.5,9.1c3.4,2.3,7.8,3.6,12.5,3.7
			c0.2,0,0.4,0,0.5,0c0.2,0,0.4,0,0.6,0l0.3,0c0.9,0,1.9-0.1,3.1-0.2c4.7-0.6,8.8-2,11.6-4.2c2.5-1.9,3.8-4.4,3.7-7.3
			c0-0.3,0-0.7-0.1-1.2c-0.4-3.7-2.4-6.5-5.9-8.7c-3.4-2-8.1-3.5-14.5-4.6c-8.1-1.3-14.4-3.6-19.4-6.8c-7.6-5-11.7-11.9-12.1-20.7
			c-0.4-8.9,3.2-17,10.3-22.8c4-3.2,8.9-5.6,14.3-6.8c0,0,0,0,0,0v-4.5c0-4.4,3.3-8.2,7.7-8.5c4.8-0.3,8.7,3.5,8.7,8.2v4.7
			c0,0,0,0,0,0c0.4,0.1,0.9,0.2,1.3,0.3c10.6,2.7,18.8,9.6,23.1,19.6c0.8,1.7,1,3.7,0.5,5.5c-0.7,2.5-2.4,4.5-4.8,5.5
			c-4.2,1.7-9-0.2-10.7-4.4c-2.2-5.3-6.5-9-12.1-10.4c-1.6-0.4-3.3-0.6-5.1-0.7c-0.2,0-0.6,0-1,0c0,0,0,0,0,0
			c-1.2,0-2.5,0.2-3.7,0.4c-3.1,0.6-5.9,1.9-8,3.6c-2.1,1.7-4.5,4.7-4.2,9.3c0.2,3.3,1.7,5.8,4.7,7.8c3,2,7.5,3.4,13.2,4.4
			c8.6,1.4,15.1,3.5,20.3,6.7c8,4.8,12.6,11.8,13.7,20.8c0.1,0.8,0.2,1.7,0.2,2.7C403.2,395.8,399.7,403,392.8,408.2z"/>
		<path class="st9" d="M403,225.7h-70.1c-8,0-14.9,6.1-15.3,14.1c-0.4,8.5,6.4,15.5,14.8,15.5l70.1,0c8,0,14.9-6.1,15.3-14.1
			C418.2,232.8,411.4,225.7,403,225.7z"/>
	</g>
</g>
</svg>
