<?xml version="1.0" encoding="utf-8"?>
<!-- Generator: Adobe Illustrator 27.9.0, SVG Export Plug-In . SVG Version: 6.00 Build 0)  -->
<svg version="1.1" xmlns="http://www.w3.org/2000/svg" xmlns:xlink="http://www.w3.org/1999/xlink" x="0px" y="0px"
	 viewBox="0 0 562.5 562.5" style="enable-background:new 0 0 562.5 562.5;" xml:space="preserve">
<style type="text/css">
	.st0{fill:url(#SVGID_1_);}
	.st1{fill:url(#SVGID_00000018209936880489729970000009437241489051020182_);}
	.st2{fill:url(#SVGID_00000096739085269233203420000007885505021510885047_);}
	.st3{fill:url(#SVGID_00000001659325427559221000000012370507854912282526_);}
	.st4{fill:url(#SVGID_00000060731599535271362960000014456807397155893938_);}
	.st5{fill:url(#SVGID_00000145017669858517077070000017231218466050937730_);}
	.st6{fill:url(#SVGID_00000119120195333488074280000006807702160070875012_);}
	.st7{fill:url(#SVGID_00000040547315553017985200000012016209243437987768_);}
	.st8{fill:url(#SVGID_00000041268745035701842390000016152229908340782221_);}
	.st9{fill:#FFFFFF;}
	.st10{fill:url(#SVGID_00000108268597676862459060000015993782984091266192_);}
	.st11{fill:url(#SVGID_00000044881120672509326250000004896242776860385469_);}
	.st12{fill:url(#SVGID_00000032627885077519849060000002978916060119106985_);}
	.st13{fill:url(#SVGID_00000148639943849243754830000012724338673630086024_);}
	.st14{fill:url(#SVGID_00000012453900579398444250000006461534623826536117_);}
	.st15{fill:url(#SVGID_00000044894292790218921260000012302952486648258177_);}
	.st16{fill:url(#SVGID_00000020387227384800905860000002322860830690150580_);}
	.st17{fill:url(#SVGID_00000127749140085559022070000007851115420824709799_);}
	.st18{fill:url(#SVGID_00000041984572633528698540000008717191032766692532_);}
	.st19{fill:url(#SVGID_00000029756080080237887990000011043281005247988364_);}
	.st20{fill:url(#SVGID_00000136379872635817690960000006780302643137901229_);}
	.st21{fill:url(#SVGID_00000140706488462213986530000012409451487532298377_);}
	.st22{fill:url(#SVGID_00000167386311951622803150000008167642144335406504_);}
	.st23{fill:url(#SVGID_00000113323566036176321480000003725703867815229331_);}
	.st24{fill:url(#SVGID_00000160186125485095062670000017296593244819222189_);}
	.st25{fill:url(#SVGID_00000169517224002094920880000015119677553608259470_);}
	.st26{fill:url(#SVGID_00000158029186398184016080000009501134789544961428_);}
	.st27{fill:url(#SVGID_00000010289489209373331080000006353800417704347570_);}
	.st28{fill:url(#SVGID_00000178899840250193389020000003005393647918404770_);}
	.st29{fill:url(#SVGID_00000080887430670718397530000010079197242456059830_);}
	.st30{fill:url(#SVGID_00000074418150615969082510000004273751065323565492_);}
	.st31{fill:url(#SVGID_00000101823616482372461180000008090171823354843046_);}
	.st32{fill:url(#SVGID_00000049913139034608168470000017564713302149055653_);}
	.st33{fill:url(#SVGID_00000007408545722867414400000000875900950643881104_);}
	.st34{fill:url(#SVGID_00000110454494143081239940000002507886075883511936_);}
	.st35{fill:url(#SVGID_00000085208270803578782830000016037957083143231401_);}
	.st36{fill:url(#SVGID_00000181064247270152088830000002581183639079757226_);}
	.st37{fill-rule:evenodd;clip-rule:evenodd;fill:#FFFFFF;}
	.st38{fill:url(#SVGID_00000098908846002077829550000008267592439989724302_);}
	.st39{fill:url(#SVGID_00000099651283675260437130000010637576899536676237_);}
	.st40{fill:url(#SVGID_00000115477477694630364260000010682577190893705381_);}
	.st41{fill:url(#SVGID_00000011006002480856746960000000610596545989401508_);}
	.st42{fill:url(#SVGID_00000039122129968616968050000004103072107530619302_);}
	.st43{fill:url(#SVGID_00000050629030579595737830000008047932036667233961_);}
	.st44{fill:url(#SVGID_00000062178397916788033020000013315167565188259774_);}
	.st45{fill:url(#SVGID_00000149362728484145810710000007789071827428067499_);}
	.st46{fill:url(#SVGID_00000164472190190782486250000000597928090753208254_);}
	.st47{fill:url(#SVGID_00000101804539183871785550000008123206951558840202_);}
	.st48{fill:url(#SVGID_00000049219422817070552670000004871556258585119918_);}
	.st49{fill:url(#SVGID_00000008151403067891833460000002749159751201236924_);}
	.st50{fill:url(#SVGID_00000160873919649381559340000008200612860336234173_);}
	.st51{fill:url(#SVGID_00000039820361069318187120000009802464481777948821_);}
	.st52{fill:url(#SVGID_00000120551753743974991370000007702963219035608765_);}
	.st53{fill:url(#SVGID_00000111177861426635803540000001561796451393072515_);}
	.st54{fill:url(#SVGID_00000146501137307395485550000017243482238030818461_);}
	.st55{fill:url(#SVGID_00000181789225595416709030000007722235179581227146_);}
	.st56{fill:url(#SVGID_00000183967357739602191460000008962796442973202568_);}
	.st57{fill:url(#SVGID_00000029744528782982121870000018301367842852742073_);}
	.st58{fill:url(#SVGID_00000181783669636824242650000009191213636304638636_);}
	.st59{fill:url(#SVGID_00000013190164961144861130000007357081951804167821_);}
	.st60{fill:url(#SVGID_00000093177010622601008080000010213348566143775379_);}
	.st61{fill:url(#SVGID_00000028318117931807955890000016015401032821979523_);}
	.st62{fill:url(#SVGID_00000183234314531596469230000013730897505993965187_);}
	.st63{fill:url(#SVGID_00000059988764865901543190000006707573120755948448_);}
	.st64{fill:url(#SVGID_00000070822375347935942240000016933633879776921503_);}
	.st65{fill:url(#SVGID_00000068676366756635413890000008041891258197031846_);}
	.st66{fill:url(#SVGID_00000028290145185440236060000009111780797863606199_);}
	.st67{fill:url(#SVGID_00000050643531856237641700000006801050583860947611_);}
	.st68{fill:url(#SVGID_00000065064659530543314170000010909715633759840128_);}
	.st69{fill:url(#SVGID_00000103959215989291430780000011346946409030686618_);}
	.st70{fill:url(#SVGID_00000078037667976036849710000001440698991640102331_);}
	.st71{fill:url(#SVGID_00000159432012895042721600000017045703248849872770_);}
	.st72{fill:url(#SVGID_00000005235290447567619640000004707040414776350615_);}
	.st73{fill:url(#SVGID_00000001627986496074850210000004644484150594513281_);}
	.st74{fill:url(#SVGID_00000129895676250962939940000005083548476064440468_);}
	.st75{fill:url(#SVGID_00000064340396298960104830000015766022172722056333_);}
	.st76{fill:url(#SVGID_00000021827063245897739590000011021642611418445973_);}
	.st77{fill:url(#SVGID_00000046311191267353829730000002991188663741364359_);}
	.st78{fill:url(#SVGID_00000171713770861835405480000006704716350912650136_);}
	.st79{fill:url(#SVGID_00000095298995267368193670000015013129845939489433_);}
	.st80{fill:url(#SVGID_00000132773376387594065630000013608894523280601501_);}
	.st81{fill:url(#SVGID_00000094613113567682397980000017540624754033042061_);}
	.st82{fill:url(#SVGID_00000061468812578019673870000005919340663577093308_);}
	.st83{fill:url(#SVGID_00000024004014992617282370000011835546073684261011_);}
	.st84{fill:url(#SVGID_00000166640327160241987190000018055298032696462220_);}
	.st85{fill:url(#SVGID_00000145051715627814130760000006485340954331102136_);}
	.st86{fill:url(#SVGID_00000145768302040694611490000004549514189338939814_);}
	.st87{fill:url(#SVGID_00000168799825071151391200000006498115238267017398_);}
	.st88{fill:url(#SVGID_00000075870580640303773100000013115347984683973289_);}
	.st89{fill:url(#SVGID_00000180340797014792714420000018030177117949398148_);}
	.st90{fill:url(#SVGID_00000119799400714690510830000005908923637729224335_);}
	.st91{fill:url(#SVGID_00000033349473869288204100000008026811857904175533_);}
	.st92{fill:url(#SVGID_00000093875126639266471310000010717309767559352486_);}
	.st93{fill:url(#SVGID_00000149371371290517523180000005454227958903314331_);}
	.st94{fill:url(#SVGID_00000106111615312630812670000016066790582359791530_);}
	.st95{fill:url(#SVGID_00000116918006496910994490000015792589798695438248_);}
	.st96{fill:url(#SVGID_00000052077474788440834790000017096421550668088493_);}
	.st97{fill:url(#SVGID_00000139289366238580232590000001418281548652732298_);}
	.st98{fill:url(#SVGID_00000161602017213470804360000016109223378788468913_);}
	.st99{fill:url(#SVGID_00000169518174627653813440000011164249957744694954_);}
	.st100{fill:url(#SVGID_00000089544112970365456950000014394319900953684608_);}
	.st101{fill:url(#SVGID_00000132776216169450778600000011016928852088711308_);}
	.st102{fill:url(#SVGID_00000010302607246072131930000014384519112509864099_);}
	.st103{fill:url(#SVGID_00000029735885258654168310000000948866428073833371_);}
	.st104{fill:url(#SVGID_00000121999851241503231160000016221973521859557778_);}
	.st105{fill:url(#XMLID_00000111874440336150710500000006326381007850517664_);}
	.st106{fill:url(#XMLID_00000014604090069071079140000012931850795529801917_);}
	.st107{fill:url(#XMLID_00000014616820814869043780000009714924620333743489_);}
	.st108{fill:url(#XMLID_00000157994678089549478350000006266840319539332270_);}
	.st109{fill:url(#XMLID_00000083770560062860558360000008426391706344930945_);}
	.st110{fill:url(#XMLID_00000142135620514633616170000008175291115528023182_);}
	.st111{fill:url(#XMLID_00000111172610856693499370000017719057595312139427_);}
	.st112{fill:url(#XMLID_00000154409904810650375530000018420295811116169652_);}
	.st113{fill:url(#XMLID_00000040535630210603442020000001149630459735484590_);}
	.st114{fill:url(#XMLID_00000115491845793769776270000008111835681696698509_);}
	.st115{fill:url(#SVGID_00000053533609735497696850000017981044124387701645_);}
	.st116{fill:none;stroke:#FFFFFF;stroke-width:450;stroke-linecap:round;stroke-linejoin:round;stroke-miterlimit:10;}
	.st117{fill:none;stroke:url(#SVGID_00000051381980363155757970000014138651732133545109_);stroke-miterlimit:10;}
	.st118{fill:none;stroke:url(#SVGID_00000055664542102595174400000002464022137085517475_);stroke-miterlimit:10;}
	.st119{fill:url(#SVGID_00000090284257419368094310000003080273953407750538_);}
	.st120{fill:url(#SVGID_00000114789358636728689300000005477948707291347596_);}
	.st121{fill:url(#SVGID_00000018921920353007310800000009467821886357800085_);}
	.st122{fill:url(#SVGID_00000096747843245738531740000008476219770771001490_);}
	.st123{fill:url(#SVGID_00000047059081892981401180000002324299318055904698_);}
	.st124{fill:url(#SVGID_00000106842380655193878920000001836265552542906253_);}
</style>
<g id="Warstwa_2">
</g>
<g id="Warstwa_1">
	<g>
		<linearGradient id="SVGID_1_" gradientUnits="userSpaceOnUse" x1="-1.9747" y1="-1.9747" x2="567.8842" y2="567.8842">
			<stop  offset="0" style="stop-color:#0359E9"/>
			<stop  offset="1" style="stop-color:#C837AB"/>
		</linearGradient>
		<path class="st0" d="M42.5,562.5H520c23.5,0,42.5-19,42.5-42.5V42.5C562.5,19,543.5,0,520,0H42.5C19,0,0,19,0,42.5V520
			C0,543.5,19,562.5,42.5,562.5z"/>
		<g>
			<g>
				<g>
					<path class="st9" d="M281.2,213c-2.9,0-5.8-1.1-8-3.3l-48.9-48.9c-15.6-15.6-15.6-41,0-56.6c7.6-7.6,17.6-11.7,28.3-11.7
						s20.7,4.2,28.3,11.7c0.1,0.1,0.2,0.2,0.3,0.3c0.1-0.1,0.2-0.2,0.3-0.3c7.6-7.6,17.6-11.7,28.3-11.7c10.7,0,20.7,4.2,28.3,11.7
						c15.6,15.6,15.6,41,0,56.6l-48.9,48.9C287,211.9,284.1,213,281.2,213L281.2,213z"/>
				</g>
			</g>
			<g>
				<g>
					<path class="st9" d="M405.5,295.8c-2.9,0-5.8-1.1-8-3.3l-48.9-48.9c-15.6-15.6-15.6-41,0-56.6c7.6-7.6,17.6-11.7,28.3-11.7
						c10.7,0,20.7,4.2,28.3,11.7c0.1,0.1,0.2,0.2,0.3,0.3c0.1-0.1,0.2-0.2,0.3-0.3c7.6-7.6,17.6-11.7,28.3-11.7
						c10.7,0,20.7,4.2,28.3,11.7c15.6,15.6,15.6,41,0,56.6l-48.9,48.9C411.3,294.7,408.4,295.8,405.5,295.8L405.5,295.8z"/>
				</g>
			</g>
			<g>
				<g>
					<path class="st9" d="M157,295.8c-2.9,0-5.8-1.1-8-3.3l-48.9-48.9c-15.6-15.6-15.6-41,0-56.6c15.6-15.6,41-15.6,56.6,0
						c0.1,0.1,0.2,0.2,0.3,0.3c0.1-0.1,0.2-0.2,0.3-0.3c7.6-7.6,17.6-11.7,28.3-11.7c10.7,0,20.7,4.2,28.3,11.7
						c15.6,15.6,15.6,41,0,56.6L165,292.5C162.8,294.7,159.9,295.8,157,295.8z"/>
				</g>
			</g>
			<g>
				<path class="st9" d="M151.3,387.7c-18.7,0-33.9-15.2-33.9-33.9c0-18.7,15.2-33.9,33.9-33.9s33.9,15.2,33.9,33.9
					C185.2,372.5,170,387.7,151.3,387.7z"/>
				<g>
					<path class="st9" d="M116.6,398.3c-16.5,11.2-27.4,30.1-27.4,51.5v16.9c0,6.2,5.1,11.3,11.3,11.3h90.4V448
						c0-13.5,3-26.3,8.3-37.8c-3.8-4.5-8.2-8.5-13.1-11.9c-9.6,7.5-21.6,12-34.7,12C138.2,410.3,126.2,405.8,116.6,398.3
						L116.6,398.3z"/>
					<path class="st9" d="M445.9,398.3c-9.6,7.5-21.6,12-34.7,12c-13.1,0-25.1-4.5-34.7-12c-4.9,3.3-9.3,7.3-13.1,11.9
						c5.3,11.5,8.3,24.3,8.3,37.8v30.1H462c6.2,0,11.3-5.1,11.3-11.3v-16.9C473.3,428.4,462.5,409.5,445.9,398.3L445.9,398.3z"/>
				</g>
				<path class="st9" d="M411.2,387.7c-18.7,0-33.9-15.2-33.9-33.9c0-18.7,15.2-33.9,33.9-33.9s33.9,15.2,33.9,33.9
					C445.1,372.5,429.9,387.7,411.2,387.7z"/>
				<g>
					<path class="st9" d="M318.1,391.1c-10.4,7.4-23.1,11.7-36.8,11.7c-13.7,0-26.4-4.3-36.8-11.7c-18.6,12.1-30.9,33.1-30.9,56.9
						v30.1H349V448C349,424.1,336.7,403.2,318.1,391.1z"/>
				</g>
				<path class="st9" d="M281.2,380.2c-22.8,0-41.4-18.6-41.4-41.4c0-22.8,18.6-41.4,41.4-41.4c22.8,0,41.4,18.6,41.4,41.4
					C322.7,361.6,304.1,380.2,281.2,380.2z"/>
			</g>
		</g>
	</g>
</g>
</svg>
